<svg id="Capa_1" data-name="Capa 1" xmlns="http://www.w3.org/2000/svg" width="23.4" height="23.4" viewBox="0 0 23.4 23.4"><path d="M15.6,8.1a3.76,3.76,0,0,1-3.9,3.8A3.9,3.9,0,0,1,7.8,8a3.82,3.82,0,0,1,3.9-3.8,3.9,3.9,0,0,1,3.9,3.9Z" fill="#447f87"/><path d="M16.3,12.9l2.5-.5-.6-2.3,1.9-1.5L18.4,6.8l.9-2.5-2.6-.7L16.2,1,13.6,2,11.9,0,10.2,2,7.5.9,6.9,3.5l-2.6.7.8,2.2L3.3,8.2,5.2,9.8l-.7,2.3,2.4.6.2.9L4.2,21.8,7.4,21l2.4,2.3,1.8-6.6,2,6.6,2.2-2.1,3.6.1-3.3-7.8ZM6.9,8.1a4.8,4.8,0,0,1,4.8-4.8,4.87,4.87,0,0,1,4.8,4.8,4.87,4.87,0,0,1-4.8,4.8A4.87,4.87,0,0,1,6.9,8.1ZM9.5,21.7,7.7,19.8l-2.1.8,1.9-5.2,1.2-.6.9-.4L11.1,16Zm6.2-1.3-1.6,1.5-1.8-6,1.2-1.3,2.4.8,2.4,5.3Z" fill="#447f87"/></svg>