<?xml version="1.0" encoding="utf-8"?>
<!-- Generator: Adobe Illustrator 26.0.3, SVG Export Plug-In . SVG Version: 6.00 Build 0)  -->
<svg version="1.1" id="Capa_1" xmlns="http://www.w3.org/2000/svg" xmlns:xlink="http://www.w3.org/1999/xlink" x="0px" y="0px"
	 viewBox="0 0 23.4 23.4" style="enable-background:new 0 0 23.4 23.4;" xml:space="preserve">
<style type="text/css">
	.st0{fill:#447F87;}
</style>
<path class="st0" d="M15.6,8.1c0,2.1-1.7,3.9-3.9,3.8S7.8,10.2,7.8,8c0-2.1,1.7-3.8,3.9-3.8C13.8,4.2,15.6,5.9,15.6,8.1
	C15.6,8.1,15.6,8.1,15.6,8.1z"/>
<path class="st0" d="M16.3,12.9l2.5-0.5l-0.6-2.3l1.9-1.5l-1.7-1.8l0.9-2.5l-2.6-0.7l-0.5-2.6l-2.6,1L11.9,0l-1.7,2L7.5,0.9L6.9,3.5
	L4.3,4.2l0.8,2.2L3.3,8.2l1.9,1.6l-0.7,2.3l2.4,0.6l0.2,0.9l-2.9,8.2l3.2-0.8l2.4,2.3l1.8-6.6l2,6.6l2.2-2.1l3.6,0.1l-3.3-7.8
	L16.3,12.9z M6.9,8.1c0-2.7,2.2-4.8,4.8-4.8s4.8,2.2,4.8,4.8s-2.2,4.8-4.8,4.8S6.9,10.7,6.9,8.1L6.9,8.1z M9.5,21.7l-1.8-1.9
	l-2.1,0.8l1.9-5.2l1.2-0.6l0.9-0.4l1.5,1.6L9.5,21.7z M15.7,20.4l-1.6,1.5l-1.8-6l1.2-1.3l2.4,0.8l2.4,5.3L15.7,20.4z"/>
</svg>
