<svg id="Layer_1" data-name="Layer 1" xmlns="http://www.w3.org/2000/svg" width="24" height="24" viewBox="0 0 24 24"><path d="M12,0A12,12,0,1,0,24,12,12,12,0,0,0,12,0Zm6.07,9.65A8.17,8.17,0,0,1,5.5,16.9a5.79,5.79,0,0,0,4.25-1.19,2.88,2.88,0,0,1-2.68-2,2.84,2.84,0,0,0,1.3-.05,2.88,2.88,0,0,1-2.31-2.85,2.75,2.75,0,0,0,1.3.36,2.87,2.87,0,0,1-.89-3.83,8.2,8.2,0,0,0,5.92,3,2.88,2.88,0,0,1,4.9-2.62A5.74,5.74,0,0,0,19.11,7a2.89,2.89,0,0,1-1.26,1.59,5.67,5.67,0,0,0,1.65-.45A6.13,6.13,0,0,1,18.07,9.65Z" fill="#fff"/></svg>